<svg width="31" height="30" viewBox="0 0 31 30" fill="none" xmlns="http://www.w3.org/2000/svg">
<g clip-path="url(#clip0)">
<path d="M22.682 0H8.92345C4.44561 0 0.802734 3.64288 0.802734 8.12071V21.8795C0.802734 26.3571 4.44561 29.9999 8.92345 29.9999H22.6822C27.1598 29.9999 30.8027 26.3571 30.8027 21.8795V8.12071C30.8027 3.64288 27.1598 0 22.682 0V0ZM29.044 21.8795C29.044 25.3873 26.19 28.2412 22.682 28.2412H8.92345C5.41538 28.2412 2.56146 25.3873 2.56146 21.8795V8.12071C2.56146 4.61265 5.41538 1.75872 8.92345 1.75872H22.6822C26.19 1.75872 29.044 4.61265 29.044 8.12071V21.8795Z" fill="black"/>
<path d="M15.8025 6.79688C11.2793 6.79688 7.59961 10.4766 7.59961 14.9998C7.59961 19.5229 11.2793 23.2026 15.8025 23.2026C20.3256 23.2026 24.0054 19.5229 24.0054 14.9998C24.0054 10.4766 20.3256 6.79688 15.8025 6.79688ZM15.8025 21.4439C12.2493 21.4439 9.35833 18.5531 9.35833 14.9998C9.35833 11.4466 12.2493 8.5556 15.8025 8.5556C19.3559 8.5556 22.2466 11.4466 22.2466 14.9998C22.2466 18.5531 19.3559 21.4439 15.8025 21.4439Z" fill="black"/>
<path d="M24.2022 3.88379C22.8655 3.88379 21.7783 4.97121 21.7783 6.30764C21.7783 7.64431 22.8655 8.73173 24.2022 8.73173C25.5388 8.73173 26.6263 7.64431 26.6263 6.30764C26.6263 4.97098 25.5388 3.88379 24.2022 3.88379ZM24.2022 6.97277C23.8355 6.97277 23.537 6.67431 23.537 6.30764C23.537 5.94075 23.8355 5.64251 24.2022 5.64251C24.5691 5.64251 24.8675 5.94075 24.8675 6.30764C24.8675 6.67431 24.5691 6.97277 24.2022 6.97277Z" fill="black"/>
</g>
<defs>
<clipPath id="clip0">
<rect width="30" height="30" fill="white" transform="translate(0.802734)"/>
</clipPath>
</defs>
</svg>
